<svg width="18" height="18" viewBox="0 0 18 18" fill="none" xmlns="http://www.w3.org/2000/svg">
<rect width="18" height="18" rx="9" fill="#303033"/>
<path d="M7.24439 6.60143C7.24439 7.0242 6.87794 7.36693 6.4259 7.36693C5.97387 7.36693 5.60742 7.0242 5.60742 6.60143C5.60742 6.17866 5.97387 5.83594 6.4259 5.83594C6.87794 5.83594 7.24439 6.17866 7.24439 6.60143Z" fill="white"/>
<path d="M5.71935 7.9296H7.11847V12.1693H5.71935V7.9296Z" fill="white"/>
<path d="M9.37104 7.9296H7.97193V12.1693H9.37104C9.37104 12.1693 9.37104 10.8346 9.37104 10C9.37104 9.49915 9.54208 8.99606 10.2245 8.99606C10.9957 8.99606 10.9911 9.65156 10.9875 10.1594C10.9828 10.8232 10.994 11.5006 10.994 12.1693H12.3931V9.93167C12.3813 8.50289 12.009 7.84455 10.7842 7.84455C10.0568 7.84455 9.60589 8.17477 9.37104 8.47354V7.9296Z" fill="white"/>
</svg>
