<svg width="18" height="18" viewBox="0 0 18 18" fill="none" xmlns="http://www.w3.org/2000/svg">
<rect width="18" height="18" rx="9" fill="#303033"/>
<g clip-path="url(#clip0_9189_76250)">
<path d="M9 5.25C10.0189 5.25 10.146 5.25375 10.5457 5.2725C10.9451 5.29125 11.217 5.35388 11.4562 5.44688C11.7037 5.54213 11.9123 5.67112 12.1208 5.87925C12.3114 6.06671 12.459 6.29347 12.5531 6.54375C12.6458 6.78262 12.7088 7.05487 12.7275 7.45425C12.7451 7.854 12.75 7.98112 12.75 9C12.75 10.0189 12.7463 10.146 12.7275 10.5457C12.7088 10.9451 12.6458 11.217 12.5531 11.4562C12.4593 11.7067 12.3117 11.9335 12.1208 12.1208C11.9332 12.3114 11.7065 12.4589 11.4562 12.5531C11.2174 12.6458 10.9451 12.7088 10.5457 12.7275C10.146 12.7451 10.0189 12.75 9 12.75C7.98112 12.75 7.854 12.7463 7.45425 12.7275C7.05487 12.7088 6.783 12.6458 6.54375 12.5531C6.29337 12.4592 6.06657 12.3116 5.87925 12.1208C5.68853 11.9333 5.54097 11.7066 5.44688 11.4562C5.35388 11.2174 5.29125 10.9451 5.2725 10.5457C5.25487 10.146 5.25 10.0189 5.25 9C5.25 7.98112 5.25375 7.854 5.2725 7.45425C5.29125 7.0545 5.35388 6.783 5.44688 6.54375C5.54071 6.29332 5.6883 6.0665 5.87925 5.87925C6.06663 5.68846 6.29341 5.5409 6.54375 5.44688C6.783 5.35388 7.0545 5.29125 7.45425 5.2725C7.854 5.25487 7.98112 5.25 9 5.25ZM9 7.125C8.50272 7.125 8.02581 7.32254 7.67417 7.67417C7.32254 8.02581 7.125 8.50272 7.125 9C7.125 9.49728 7.32254 9.97419 7.67417 10.3258C8.02581 10.6775 8.50272 10.875 9 10.875C9.49728 10.875 9.97419 10.6775 10.3258 10.3258C10.6775 9.97419 10.875 9.49728 10.875 9C10.875 8.50272 10.6775 8.02581 10.3258 7.67417C9.97419 7.32254 9.49728 7.125 9 7.125V7.125ZM11.4375 7.03125C11.4375 6.90693 11.3881 6.7877 11.3002 6.69979C11.2123 6.61189 11.0931 6.5625 10.9688 6.5625C10.8444 6.5625 10.7252 6.61189 10.6373 6.69979C10.5494 6.7877 10.5 6.90693 10.5 7.03125C10.5 7.15557 10.5494 7.2748 10.6373 7.36271C10.7252 7.45061 10.8444 7.5 10.9688 7.5C11.0931 7.5 11.2123 7.45061 11.3002 7.36271C11.3881 7.2748 11.4375 7.15557 11.4375 7.03125ZM9 7.875C9.29837 7.875 9.58452 7.99353 9.7955 8.2045C10.0065 8.41548 10.125 8.70163 10.125 9C10.125 9.29837 10.0065 9.58452 9.7955 9.7955C9.58452 10.0065 9.29837 10.125 9 10.125C8.70163 10.125 8.41548 10.0065 8.2045 9.7955C7.99353 9.58452 7.875 9.29837 7.875 9C7.875 8.70163 7.99353 8.41548 8.2045 8.2045C8.41548 7.99353 8.70163 7.875 9 7.875V7.875Z" fill="white"/>
</g>
<defs>
<clipPath id="clip0_9189_76250">
<rect width="9" height="9" fill="white" transform="translate(4.5 4.5)"/>
</clipPath>
</defs>
</svg>
