<svg width="83" height="31" viewBox="0 0 83 31" fill="none" xmlns="http://www.w3.org/2000/svg">
<rect width="30.375" height="30.375" rx="15.1875" fill="url(#paint0_linear_9189_76272)"/>
<path fill-rule="evenodd" clip-rule="evenodd" d="M7.3125 15.1579C7.3125 16.586 7.9027 18.0843 8.84352 19.0442C10.6901 20.9229 13.3781 21.2565 15.6046 19.8636C15.8032 19.7406 16.1246 19.4948 16.2766 19.3368C17.6089 17.9848 17.381 17.6336 17.381 15.6964V13.3552C17.381 12.6061 17.6147 12.1613 17.942 11.7399C18.3569 11.2072 18.9938 11.02 19.7068 11.02C21.4365 11.02 22.5234 13.3552 21.1443 14.8301C20.6593 15.351 19.8178 15.632 19.0581 15.4271C18.8127 15.3627 18.8127 15.3042 18.5147 15.3042C17.9128 15.3042 17.568 16.305 18.3803 16.6152C19.6483 17.0952 20.8813 16.7616 21.8864 15.9305C24.1479 14.0693 23.0259 9.65625 19.5665 9.65625C18.9821 9.65625 18.3218 9.85525 17.9361 10.0777C17.0655 10.581 16.3934 11.4121 16.1772 12.4597C16.0428 13.0977 16.1013 15.7256 16.1013 16.5684C16.1013 17.5868 15.8967 18.0901 15.0786 18.6345C13.46 19.7114 11.2745 19.6411 9.91874 18.2365C9.5915 17.897 9.2701 17.5166 9.05973 17.0718C8.39941 15.6729 8.52212 14.0224 9.38697 12.7465C9.48047 12.6119 9.51553 12.5944 9.60319 12.4832C9.69668 12.3661 9.70837 12.331 9.8194 12.2198C10.3512 11.6696 11.3972 11.0141 12.4432 11.0141C13.01 11.0141 13.2321 10.9907 13.793 11.137C14.2138 11.2482 14.1612 11.3536 14.6754 11.3536C15.1078 11.3536 15.1955 10.9146 15.1955 10.5751C15.2013 9.91963 13.4892 9.65625 12.7295 9.65625C11.8179 9.65625 11.1751 9.8728 10.5382 10.1362C10.2168 10.2649 9.9538 10.4347 9.67915 10.622C9.53891 10.7215 9.43372 10.8093 9.30516 10.9205C9.2292 10.9848 9.20582 11.02 9.1357 11.0843C8.70327 11.4706 8.34097 11.8862 8.05464 12.4188C7.95529 12.6061 7.89102 12.6822 7.80336 12.8929C7.53456 13.5659 7.3125 14.2273 7.3125 15.1579Z" fill="white"/>
<path d="M37.9519 19.1875V11.6607H40.7083C41.2424 11.6607 41.6847 11.7489 42.035 11.9253C42.3854 12.0993 42.6476 12.3357 42.8215 12.6347C42.9955 12.9311 43.0825 13.2656 43.0825 13.638C43.0825 13.9516 43.0249 14.2162 42.9097 14.4318C42.7946 14.645 42.6402 14.8165 42.4467 14.9463C42.2556 15.0737 42.0448 15.1669 41.8145 15.2257V15.2992C42.0644 15.3114 42.3082 15.3923 42.5459 15.5417C42.786 15.6887 42.9845 15.8982 43.1413 16.1702C43.2981 16.4421 43.3765 16.7729 43.3765 17.1625C43.3765 17.5471 43.2858 17.8926 43.1045 18.1989C42.9257 18.5027 42.6488 18.744 42.2739 18.9229C41.8991 19.0993 41.4201 19.1875 40.8369 19.1875H37.9519ZM39.0875 18.2136H40.7267C41.2706 18.2136 41.6602 18.1082 41.8954 17.8975C42.1306 17.6868 42.2482 17.4234 42.2482 17.1073C42.2482 16.8697 42.1882 16.6516 42.0681 16.4532C41.9481 16.2547 41.7766 16.0967 41.5536 15.9791C41.3331 15.8615 41.0709 15.8027 40.7671 15.8027H39.0875V18.2136ZM39.0875 14.9169H40.6091C40.8639 14.9169 41.093 14.8679 41.2963 14.7699C41.5021 14.6719 41.6651 14.5347 41.7851 14.3583C41.9076 14.1795 41.9689 13.9687 41.9689 13.7262C41.9689 13.415 41.8599 13.1541 41.6418 12.9434C41.4237 12.7327 41.0893 12.6273 40.6385 12.6273H39.0875V14.9169ZM48.2112 16.8464V13.5424H49.3137V19.1875H48.2332V18.2099H48.1744C48.0446 18.5113 47.8363 18.7624 47.5497 18.9633C47.2654 19.1618 46.9114 19.261 46.4875 19.261C46.1249 19.261 45.8039 19.1814 45.5246 19.0221C45.2478 18.8604 45.0297 18.6215 44.8704 18.3055C44.7136 17.9894 44.6352 17.5986 44.6352 17.1331V13.5424H45.7341V17.0008C45.7341 17.3854 45.8407 17.6917 46.0539 17.9196C46.267 18.1474 46.5439 18.2614 46.8844 18.2614C47.0903 18.2614 47.2948 18.2099 47.4982 18.107C47.704 18.0041 47.8743 17.8485 48.0091 17.6402C48.1463 17.432 48.2136 17.1674 48.2112 16.8464ZM55.0204 14.9206L54.0244 15.097C53.9828 14.9696 53.9166 14.8483 53.8259 14.7332C53.7377 14.618 53.6177 14.5237 53.4658 14.4502C53.3139 14.3767 53.124 14.3399 52.8961 14.3399C52.585 14.3399 52.3252 14.4098 52.117 14.5494C51.9087 14.6866 51.8046 14.8643 51.8046 15.0823C51.8046 15.271 51.8744 15.4229 52.0141 15.538C52.1537 15.6532 52.3791 15.7475 52.6903 15.821L53.5871 16.0268C54.1065 16.1469 54.4936 16.3319 54.7484 16.5818C55.0032 16.8317 55.1306 17.1563 55.1306 17.5557C55.1306 17.8938 55.0326 18.1952 54.8366 18.4598C54.6431 18.722 54.3723 18.9278 54.0244 19.0772C53.6789 19.2267 53.2783 19.3014 52.8226 19.3014C52.1905 19.3014 51.6747 19.1667 51.2754 18.8972C50.876 18.6252 50.631 18.2393 50.5403 17.7395L51.6025 17.5778C51.6686 17.8546 51.8046 18.0641 52.0104 18.2062C52.2162 18.3459 52.4845 18.4157 52.8153 18.4157C53.1754 18.4157 53.4633 18.341 53.6789 18.1915C53.8945 18.0396 54.0024 17.8546 54.0024 17.6366C54.0024 17.4602 53.9362 17.3119 53.8039 17.1919C53.674 17.0718 53.4744 16.9812 53.2048 16.9199L52.2493 16.7104C51.7225 16.5904 51.3329 16.3993 51.0806 16.1371C50.8307 15.8749 50.7057 15.5429 50.7057 15.1411C50.7057 14.8079 50.7988 14.5163 50.985 14.2664C51.1712 14.0165 51.4285 13.8217 51.7568 13.6821C52.0851 13.54 52.4612 13.4689 52.8851 13.4689C53.4952 13.4689 53.9754 13.6012 54.3258 13.8658C54.6761 14.128 54.9077 14.4796 55.0204 14.9206ZM56.3389 19.1875V13.5424H57.4377V19.1875H56.3389ZM56.8938 12.6714C56.7027 12.6714 56.5385 12.6077 56.4013 12.4803C56.2666 12.3504 56.1992 12.1961 56.1992 12.0172C56.1992 11.8359 56.2666 11.6816 56.4013 11.5541C56.5385 11.4243 56.7027 11.3594 56.8938 11.3594C57.0849 11.3594 57.2478 11.4243 57.3826 11.5541C57.5198 11.6816 57.5884 11.8359 57.5884 12.0172C57.5884 12.1961 57.5198 12.3504 57.3826 12.4803C57.2478 12.6077 57.0849 12.6714 56.8938 12.6714ZM60.015 15.8357V19.1875H58.9161V13.5424H59.9708V14.4612H60.0407C60.1705 14.1623 60.3739 13.9222 60.6508 13.7409C60.9301 13.5596 61.2817 13.4689 61.7055 13.4689C62.0902 13.4689 62.4271 13.5498 62.7162 13.7115C63.0053 13.8707 63.2295 14.1084 63.3888 14.4245C63.548 14.7405 63.6277 15.1313 63.6277 15.5968V19.1875H62.5288V15.7292C62.5288 15.32 62.4222 15.0002 62.209 14.7699C61.9959 14.5372 61.7031 14.4208 61.3307 14.4208C61.0759 14.4208 60.8492 14.4759 60.6508 14.5862C60.4547 14.6964 60.2992 14.8581 60.184 15.0713C60.0713 15.282 60.015 15.5368 60.015 15.8357ZM67.5344 19.3014C66.9782 19.3014 66.4992 19.1826 66.0974 18.9449C65.698 18.7048 65.3893 18.3679 65.1712 17.9343C64.9556 17.4981 64.8478 16.9873 64.8478 16.4017C64.8478 15.8235 64.9556 15.3139 65.1712 14.8728C65.3893 14.4318 65.6931 14.0876 66.0827 13.8401C66.4747 13.5926 66.9329 13.4689 67.4572 13.4689C67.7757 13.4689 68.0844 13.5216 68.3833 13.6269C68.6823 13.7323 68.9505 13.8977 69.1882 14.1231C69.4259 14.3485 69.6133 14.6413 69.7505 15.0015C69.8877 15.3592 69.9563 15.7941 69.9563 16.3062V16.6957H65.4689V15.8725H68.8795C68.8795 15.5834 68.8207 15.3273 68.7031 15.1044C68.5855 14.879 68.4201 14.7013 68.2069 14.5715C67.9962 14.4416 67.7488 14.3767 67.4645 14.3767C67.1558 14.3767 66.8863 14.4526 66.656 14.6045C66.4281 14.754 66.2517 14.95 66.1268 15.1926C66.0043 15.4327 65.943 15.6936 65.943 15.9754V16.6185C65.943 16.9959 66.0092 17.3168 66.1415 17.5814C66.2762 17.8461 66.4637 18.0482 66.7038 18.1879C66.9439 18.3251 67.2244 18.3937 67.5454 18.3937C67.7537 18.3937 67.9435 18.3643 68.1151 18.3055C68.2866 18.2442 68.4348 18.1535 68.5597 18.0335C68.6847 17.9134 68.7803 17.7652 68.8464 17.5888L69.8865 17.7762C69.8032 18.0825 69.6537 18.3508 69.4381 18.5811C69.225 18.809 68.9567 18.9866 68.6333 19.114C68.3123 19.239 67.946 19.3014 67.5344 19.3014ZM75.4057 14.9206L74.4097 15.097C74.3681 14.9696 74.3019 14.8483 74.2113 14.7332C74.1231 14.618 74.003 14.5237 73.8511 14.4502C73.6992 14.3767 73.5093 14.3399 73.2814 14.3399C72.9703 14.3399 72.7106 14.4098 72.5023 14.5494C72.294 14.6866 72.1899 14.8643 72.1899 15.0823C72.1899 15.271 72.2597 15.4229 72.3994 15.538C72.5391 15.6532 72.7645 15.7475 73.0756 15.821L73.9724 16.0268C74.4918 16.1469 74.8789 16.3319 75.1337 16.5818C75.3885 16.8317 75.5159 17.1563 75.5159 17.5557C75.5159 17.8938 75.4179 18.1952 75.2219 18.4598C75.0284 18.722 74.7576 18.9278 74.4097 19.0772C74.0643 19.2267 73.6637 19.3014 73.2079 19.3014C72.5758 19.3014 72.0601 19.1667 71.6607 18.8972C71.2613 18.6252 71.0163 18.2393 70.9256 17.7395L71.9878 17.5778C72.0539 17.8546 72.1899 18.0641 72.3957 18.2062C72.6015 18.3459 72.8698 18.4157 73.2006 18.4157C73.5608 18.4157 73.8486 18.341 74.0643 18.1915C74.2799 18.0396 74.3877 17.8546 74.3877 17.6366C74.3877 17.4602 74.3215 17.3119 74.1892 17.1919C74.0594 17.0718 73.8597 16.9812 73.5902 16.9199L72.6346 16.7104C72.1078 16.5904 71.7183 16.3993 71.4659 16.1371C71.216 15.8749 71.091 15.5429 71.091 15.1411C71.091 14.8079 71.1841 14.5163 71.3703 14.2664C71.5566 14.0165 71.8138 13.8217 72.1421 13.6821C72.4704 13.54 72.8465 13.4689 73.2704 13.4689C73.8805 13.4689 74.3607 13.6012 74.7111 13.8658C75.0615 14.128 75.293 14.4796 75.4057 14.9206ZM80.9543 14.9206L79.9583 15.097C79.9167 14.9696 79.8505 14.8483 79.7599 14.7332C79.6717 14.618 79.5516 14.5237 79.3997 14.4502C79.2478 14.3767 79.0579 14.3399 78.83 14.3399C78.5189 14.3399 78.2592 14.4098 78.0509 14.5494C77.8426 14.6866 77.7385 14.8643 77.7385 15.0823C77.7385 15.271 77.8083 15.4229 77.948 15.538C78.0877 15.6532 78.3131 15.7475 78.6242 15.821L79.521 16.0268C80.0404 16.1469 80.4275 16.3319 80.6823 16.5818C80.9371 16.8317 81.0646 17.1563 81.0646 17.5557C81.0646 17.8938 80.9666 18.1952 80.7705 18.4598C80.577 18.722 80.3062 18.9278 79.9583 19.0772C79.6129 19.2267 79.2123 19.3014 78.7565 19.3014C78.1244 19.3014 77.6087 19.1667 77.2093 18.8972C76.8099 18.6252 76.5649 18.2393 76.4743 17.7395L77.5364 17.5778C77.6025 17.8546 77.7385 18.0641 77.9443 18.2062C78.1501 18.3459 78.4184 18.4157 78.7492 18.4157C79.1094 18.4157 79.3972 18.341 79.6129 18.1915C79.8285 18.0396 79.9363 17.8546 79.9363 17.6366C79.9363 17.4602 79.8701 17.3119 79.7378 17.1919C79.608 17.0718 79.4083 16.9812 79.1388 16.9199L78.1832 16.7104C77.6564 16.5904 77.2669 16.3993 77.0145 16.1371C76.7646 15.8749 76.6396 15.5429 76.6396 15.1411C76.6396 14.8079 76.7327 14.5163 76.919 14.2664C77.1052 14.0165 77.3624 13.8217 77.6907 13.6821C78.0191 13.54 78.3951 13.4689 78.819 13.4689C79.4291 13.4689 79.9093 13.6012 80.2597 13.8658C80.6101 14.128 80.8416 14.4796 80.9543 14.9206Z" fill="black"/>
<defs>
<linearGradient id="paint0_linear_9189_76272" x1="15.1875" y1="0" x2="15.1875" y2="30.375" gradientUnits="userSpaceOnUse">
<stop stop-color="#2684EF"/>
<stop offset="1" stop-color="#274FED"/>
</linearGradient>
</defs>
</svg>
