<svg width="18" height="18" viewBox="0 0 18 18" fill="none" xmlns="http://www.w3.org/2000/svg">
<rect width="18" height="18" rx="9" fill="#303033"/>
<g clip-path="url(#clip0_9189_76252)">
<path d="M6.59184 5.73196C6.87929 5.732 7.16675 5.73353 7.45416 5.73081C7.48209 5.72897 7.51 5.73459 7.53505 5.74707C7.56009 5.75956 7.58138 5.77847 7.59672 5.80188C7.78851 6.06441 7.98152 6.32605 8.17575 6.5868C8.35207 6.82308 8.53116 7.05729 8.70867 7.29268C8.86778 7.50368 9.02667 7.71485 9.18531 7.9262C9.23511 7.9923 9.28461 8.05868 9.33629 8.1233C9.38074 8.17887 9.41306 8.18014 9.45998 8.13051C9.6847 7.89283 9.90917 7.65491 10.1334 7.41677C10.458 7.07043 10.782 6.72359 11.1056 6.37624C11.2765 6.19337 11.4495 6.01238 11.6182 5.82752C11.6768 5.76328 11.7403 5.72784 11.8295 5.73359C11.9162 5.73917 12.0035 5.73375 12.0905 5.73661C12.1122 5.73733 12.1491 5.74797 12.1516 5.75986C12.1528 5.772 12.1514 5.78425 12.1476 5.79582C12.1437 5.80739 12.1375 5.81803 12.1293 5.82707C11.9622 6.00516 11.792 6.18028 11.6248 6.35821C11.2884 6.71615 10.9528 7.07489 10.6182 7.43443C10.322 7.75445 10.0299 8.07812 9.73598 8.40021C9.73462 8.40169 9.73385 8.40374 9.7324 8.4051C9.61857 8.51265 9.61429 8.50004 9.72651 8.64856C9.91987 8.90447 10.1063 9.1656 10.2983 9.42255C10.5712 9.78774 10.8469 10.1508 11.1205 10.5154C11.319 10.7799 11.5168 11.0448 11.7138 11.3103C11.8981 11.5573 12.0824 11.8042 12.2666 12.0512C12.2978 12.0931 12.3303 12.1344 12.3572 12.179C12.384 12.2236 12.3704 12.25 12.3187 12.2599C12.2927 12.2639 12.2664 12.2654 12.2401 12.2645C11.7199 12.266 11.1997 12.268 10.6794 12.268C10.4288 12.268 10.4882 12.2873 10.3376 12.0939C10.1839 11.8965 10.0365 11.6942 9.88749 11.4931C9.70977 11.2534 9.53384 11.0123 9.35606 10.7726C9.18192 10.5378 9.00707 10.3036 8.83152 10.0698C8.75672 9.96968 8.68189 9.86955 8.60703 9.76944C8.55038 9.69366 8.51337 9.69127 8.44764 9.76068C8.13921 10.0864 7.82936 10.4107 7.52321 10.7386C7.21579 11.0677 6.91276 11.401 6.60655 11.7314C6.46126 11.8881 6.31207 12.0412 6.16668 12.1979C6.14528 12.2208 6.11921 12.239 6.09023 12.251C6.06124 12.263 6.03001 12.2687 5.99863 12.2677C5.90561 12.2687 5.8125 12.2681 5.71953 12.2651C5.69486 12.2612 5.67075 12.2544 5.64778 12.2446C5.65891 12.2221 5.66557 12.1955 5.68188 12.1778C5.83238 12.0147 5.98472 11.8533 6.13618 11.6911C6.39392 11.415 6.65152 11.1389 6.90897 10.8626C7.1567 10.5965 7.40427 10.3303 7.65166 10.064C7.83629 9.86632 8.02247 9.67013 8.20771 9.47306C8.2243 9.45541 8.23876 9.43577 8.25477 9.41755C8.28293 9.38551 8.28314 9.35386 8.25757 9.31964C8.12717 9.14513 7.99709 8.97038 7.86733 8.79539C7.64719 8.49904 7.42792 8.20204 7.20685 7.90638C7.05838 7.70781 6.90612 7.51208 6.75794 7.3133C6.58327 7.07899 6.41165 6.8424 6.23785 6.60743C6.04838 6.35128 5.85841 6.09548 5.66795 5.84006C5.66072 5.83033 5.65413 5.82011 5.6475 5.80995C5.61519 5.76047 5.62671 5.73729 5.68714 5.73426C5.73357 5.73193 5.78016 5.73205 5.82668 5.73201C6.08173 5.73182 6.33679 5.73181 6.59184 5.73196ZM11.1518 11.8708V11.8711C11.2894 11.8711 11.4271 11.872 11.5647 11.8703C11.5899 11.8673 11.6147 11.8615 11.6386 11.853C11.6293 11.8274 11.6252 11.7981 11.6099 11.777C11.5055 11.6339 11.3988 11.4925 11.2927 11.3507C11.1308 11.1343 10.9688 10.918 10.8067 10.7017C10.6556 10.5003 10.5037 10.2995 10.3531 10.0977C10.1771 9.86171 10.003 9.62434 9.82654 9.38867C9.67305 9.18365 9.51725 8.98036 9.36295 8.77594C9.24663 8.62185 9.13171 8.4667 9.015 8.31291C8.91376 8.17951 8.80951 8.04839 8.70903 7.91444C8.48996 7.62238 8.27177 7.32967 8.05445 7.0363C7.93665 6.87767 7.82061 6.71773 7.70321 6.55881C7.60965 6.43217 7.51734 6.3045 7.41953 6.18121C7.39558 6.15238 7.36124 6.13413 7.32394 6.13042C7.04469 6.12726 6.76538 6.12929 6.4861 6.13159C6.46255 6.13178 6.42197 6.14135 6.41926 6.15334C6.41528 6.18052 6.42198 6.20819 6.43796 6.23054C6.5878 6.43333 6.74002 6.63435 6.89171 6.83577C7.07971 7.08539 7.26772 7.335 7.45575 7.58459C7.67934 7.8831 7.90149 8.18268 8.12486 8.48134C8.22994 8.62183 8.33711 8.76076 8.44213 8.9013C8.67761 9.21642 8.91133 9.53287 9.14767 9.84734C9.36222 10.1328 9.58079 10.4153 9.79487 10.7011C10.073 11.0725 10.3495 11.445 10.6243 11.8188C10.6363 11.8362 10.6526 11.8502 10.6717 11.8594C10.6907 11.8686 10.7118 11.8726 10.7329 11.8711C10.8725 11.8702 11.0122 11.8708 11.1518 11.8708Z" fill="white"/>
</g>
<defs>
<clipPath id="clip0_9189_76252">
<rect width="7" height="7" fill="white" transform="translate(5.5 5.5)"/>
</clipPath>
</defs>
</svg>
