<svg width="18" height="18" viewBox="0 0 18 18" fill="none" xmlns="http://www.w3.org/2000/svg">
<rect width="18" height="18" rx="9" fill="#303033"/>
<path d="M13.1523 6.72656C13.1164 6.58255 13.0462 6.44939 12.9475 6.33849C12.8489 6.2276 12.7248 6.14228 12.5859 6.08984C11.25 5.57422 9.11719 5.57813 9 5.57813C8.88281 5.57813 6.75 5.57422 5.41406 6.08984C5.27521 6.14228 5.15114 6.2276 5.0525 6.33849C4.95385 6.44939 4.88356 6.58255 4.84766 6.72656C4.74609 7.11328 4.625 7.82422 4.625 9C4.625 10.1758 4.74609 10.8867 4.84766 11.2734C4.88356 11.4175 4.95385 11.5506 5.0525 11.6615C5.15114 11.7724 5.27521 11.8577 5.41406 11.9102C6.69531 12.4063 8.70312 12.4219 8.97266 12.4219H9.02734C9.29688 12.4219 11.3047 12.4063 12.5859 11.9102C12.7248 11.8577 12.8489 11.7724 12.9475 11.6615C13.0462 11.5506 13.1164 11.4175 13.1523 11.2734C13.2539 10.8867 13.375 10.1758 13.375 9C13.375 7.82422 13.2539 7.11328 13.1523 6.72656ZM10.3359 9.12891L8.46094 10.3789C8.43607 10.3972 8.40587 10.4068 8.375 10.4063C8.34912 10.4053 8.32378 10.3986 8.30078 10.3867C8.27581 10.3737 8.25493 10.3541 8.24045 10.3299C8.22597 10.3058 8.21846 10.2781 8.21875 10.25V7.75C8.21846 7.72186 8.22597 7.69419 8.24045 7.67005C8.25493 7.64592 8.27581 7.62627 8.30078 7.61328C8.32569 7.59999 8.35374 7.5937 8.38194 7.59508C8.41014 7.59645 8.43744 7.60544 8.46094 7.62109L10.3359 8.87109C10.3577 8.88482 10.3757 8.90384 10.3881 8.92638C10.4006 8.94892 10.4071 8.97425 10.4071 9C10.4071 9.02575 10.4006 9.05108 10.3881 9.07362C10.3757 9.09616 10.3577 9.11518 10.3359 9.12891Z" fill="white"/>
</svg>
